<svg xmlns="http://www.w3.org/2000/svg" viewBox="0 0 480 320" width="480" height="320"><rect width="480" height="320" fill="#E8F1EC"/><g stroke="#1F3B35" stroke-width="1.5" stroke-linejoin="round"><path d="M240 90 L420 180 L240 270 L60 180z" fill="#E7B77A"/><path d="M60 180 L240 270 V290 L60 200z" fill="#B7834A"/><path d="M240 270 L420 180 V200 L240 290z" fill="#9A6A36"/><path d="M150 170 L220 135 L280 165 L210 200z" fill="#CFD8DC"/><path d="M220 135 L220 75 L280 105 L280 165z" fill="#37474F"/><path d="M226 142 L226 86 L274 110 L274 162z" fill="#1E2A2E"/><path d="M232 104 l20 10 M232 114 l30 15 M232 124 l14 7" stroke="#7CFFB2" stroke-width="2"/><g transform="translate(300 150)"><path d="M0 0 l80 40 l-10 5 l-80 -40z" fill="#F4C430"/><path d="M-10 5 l80 40 v8 l-80 -40z" fill="#C99A12"/><ellipse cx="-14" cy="-6" rx="30" ry="16" fill="#F4C430"/><ellipse cx="-14" cy="-6" rx="11" ry="6" fill="#E7B77A"/><path d="M44 22 l0 12 l10 5 v-12 M58 29 l0 10 l8 4 v-10" fill="#C99A12"/></g><g transform="translate(130 150)"><ellipse rx="26" ry="14" fill="#90A4AE"/><ellipse rx="9" ry="5" fill="#E7B77A"/><path d="M-4 -18h8v6h-8zM-4 12h8v6h-8zM26 -3h8v6h-8zM-34 -3h8v6h-8z" fill="#90A4AE"/></g><g transform="translate(330 40)"><path d="M0 0 L80 40 L80 90 L0 50z" fill="#fff"/><path d="M0 0 L80 40 L80 50 L0 10z" fill="#4DB6AC"/><path d="M12 22 l56 28 M12 32 l40 20" stroke="#B0BEC5"/></g><path d="M300 110 C 320 100, 330 90, 335 85" fill="none" stroke-dasharray="4 4"/></g><text x="24" y="42" font-family="Menlo, monospace" font-size="12" fill="#1F3B35" font-weight="700">latchkey/</text><text x="24" y="60" font-family="Menlo, monospace" font-size="11" fill="#1F3B35" opacity=".7">connector · login · hot-mod</text></svg>