<svg xmlns="http://www.w3.org/2000/svg" viewBox="0 0 480 320" width="480" height="320"><rect width="480" height="320" fill="#008080"/><g font-family="MS Sans Serif, Tahoma, Geneva, Verdana, sans-serif" font-size="11"><g transform="translate(34 28)"><rect width="300" height="200" fill="#C0C0C0"/><path d="M0 200V0h300" stroke="#fff" stroke-width="2" fill="none"/><path d="M300 0v200H0" stroke="#404040" stroke-width="2" fill="none"/><rect x="4" y="4" width="292" height="20" fill="#000080"/><text x="10" y="18" fill="#fff" font-weight="700">Foreman — agent.exe</text><g transform="translate(274 7)"><rect width="16" height="14" fill="#C0C0C0" stroke="#404040"/><path d="M4 3l8 8M12 3l-8 8" stroke="#000" stroke-width="1.6"/></g><text x="10" y="42">File Edit View Agent Help</text><rect x="8" y="50" width="284" height="140" fill="#000"/><path d="M8 190V50h284" stroke="#404040" fill="none"/><g font-family="Courier New, monospace" font-size="11" fill="#C0C0C0"><text x="14" y="68">C:\&gt; pi --model glm-5.2</text><text x="14" y="84">booting node 22 ... OK</text><text x="14" y="100">routing via openrouter ... OK</text><text x="14" y="116" fill="#FFFF55">&gt; refactor auth module</text><text x="14" y="132">[####################----] 83%</text><text x="14" y="148">edited 4 files, 2 tests pass</text><text x="14" y="164">C:\&gt; _</text></g></g><g transform="translate(236 140)"><rect width="210" height="112" fill="#C0C0C0"/><path d="M0 112V0h210" stroke="#fff" stroke-width="2" fill="none"/><path d="M210 0v112H0" stroke="#404040" stroke-width="2" fill="none"/><rect x="4" y="4" width="202" height="20" fill="#000080"/><text x="10" y="18" fill="#fff" font-weight="700">pi-console</text><circle cx="30" cy="54" r="14" fill="#FFFF00" stroke="#000"/><text x="30" y="60" text-anchor="middle" font-weight="700" font-size="16">i</text><text x="54" y="50">Agent finished task.</text><text x="54" y="66">0 Claude credits used.</text><g transform="translate(64 80)"><rect width="76" height="22" fill="#C0C0C0"/><path d="M0 22V0h76" stroke="#fff" stroke-width="2" fill="none"/><path d="M76 0v22H0" stroke="#000" stroke-width="2" fill="none"/><rect x="4" y="4" width="68" height="14" fill="none" stroke="#000" stroke-dasharray="1 1"/><text x="38" y="15" text-anchor="middle">OK</text></g></g><rect y="278" width="480" height="42" fill="#C0C0C0"/><path d="M0 279h480" stroke="#fff" stroke-width="2"/><g transform="translate(4 283)"><rect width="62" height="20" fill="#C0C0C0"/><path d="M0 20V0h62" stroke="#fff" stroke-width="2" fill="none"/><path d="M62 0v20H0" stroke="#000" stroke-width="2" fill="none"/><text x="10" y="14" font-weight="700">▣ Start</text></g><text x="468" y="297" text-anchor="end">9:41 AM</text></g></svg>