<svg xmlns="http://www.w3.org/2000/svg" viewBox="0 0 480 320" width="480" height="320" shape-rendering="crispEdges"><style>rect:not([width]){width:10px;height:10px}</style><rect width="480" height="320" fill="#29366F"/><rect x="0" y="260" width="480" height="10" fill="#333C57"/><rect x="0" y="270" width="480" height="10" fill="#333C57"/><rect x="0" y="280" width="480" height="10" fill="#333C57"/><rect x="0" y="290" width="480" height="10" fill="#333C57"/><rect x="0" y="300" width="480" height="10" fill="#333C57"/><rect x="0" y="310" width="480" height="10" fill="#333C57"/><rect x="0" y="260" fill="#566C86"/><rect x="40" y="260" fill="#566C86"/><rect x="80" y="260" fill="#566C86"/><rect x="120" y="260" fill="#566C86"/><rect x="160" y="260" fill="#566C86"/><rect x="200" y="260" fill="#566C86"/><rect x="240" y="260" fill="#566C86"/><rect x="280" y="260" fill="#566C86"/><rect x="320" y="260" fill="#566C86"/><rect x="360" y="260" fill="#566C86"/><rect x="400" y="260" fill="#566C86"/><rect x="440" y="260" fill="#566C86"/><rect x="40" y="30" fill="#F4F4F4" opacity=".6"/><rect x="200" y="20" fill="#F4F4F4" opacity=".6"/><rect x="430" y="40" fill="#F4F4F4" opacity=".6"/><rect x="300" y="60" fill="#F4F4F4" opacity=".6"/><rect x="110" y="70" fill="#F4F4F4" opacity=".6"/><rect x="60" y="170" fill="#1A1C2C"/><rect x="70" y="170" fill="#1A1C2C"/><rect x="80" y="170" fill="#1A1C2C"/><rect x="90" y="170" fill="#1A1C2C"/><rect x="100" y="170" fill="#1A1C2C"/><rect x="60" y="180" fill="#1A1C2C"/><rect x="70" y="180" fill="#FFCD75"/><rect x="80" y="180" fill="#FFCD75"/><rect x="90" y="180" fill="#FFCD75"/><rect x="100" y="180" fill="#1A1C2C"/><rect x="40" y="190" fill="#1A1C2C"/><rect x="50" y="190" fill="#1A1C2C"/><rect x="60" y="190" fill="#1A1C2C"/><rect x="70" y="190" fill="#1A1C2C"/><rect x="80" y="190" fill="#1A1C2C"/><rect x="90" y="190" fill="#1A1C2C"/><rect x="100" y="190" fill="#1A1C2C"/><rect x="110" y="190" fill="#1A1C2C"/><rect x="120" y="190" fill="#1A1C2C"/><rect x="40" y="200" fill="#1A1C2C"/><rect x="50" y="200" fill="#F4F4F4"/><rect x="60" y="200" fill="#F4F4F4"/><rect x="70" y="200" fill="#F4F4F4"/><rect x="80" y="200" fill="#F4F4F4"/><rect x="90" y="200" fill="#F4F4F4"/><rect x="100" y="200" fill="#F4F4F4"/><rect x="110" y="200" fill="#F4F4F4"/><rect x="120" y="200" fill="#1A1C2C"/><rect x="40" y="210" fill="#1A1C2C"/><rect x="50" y="210" fill="#F4F4F4"/><rect x="60" y="210" fill="#41A6F6"/><rect x="70" y="210" fill="#F4F4F4"/><rect x="80" y="210" fill="#F4F4F4"/><rect x="90" y="210" fill="#F4F4F4"/><rect x="100" y="210" fill="#41A6F6"/><rect x="110" y="210" fill="#F4F4F4"/><rect x="120" y="210" fill="#1A1C2C"/><rect x="40" y="220" fill="#1A1C2C"/><rect x="50" y="220" fill="#F4F4F4"/><rect x="60" y="220" fill="#F4F4F4"/><rect x="70" y="220" fill="#F4F4F4"/><rect x="80" y="220" fill="#F4F4F4"/><rect x="90" y="220" fill="#F4F4F4"/><rect x="100" y="220" fill="#F4F4F4"/><rect x="110" y="220" fill="#F4F4F4"/><rect x="120" y="220" fill="#1A1C2C"/><rect x="40" y="230" fill="#1A1C2C"/><rect x="50" y="230" fill="#F4F4F4"/><rect x="60" y="230" fill="#F4F4F4"/><rect x="70" y="230" fill="#B13E53"/><rect x="80" y="230" fill="#B13E53"/><rect x="90" y="230" fill="#B13E53"/><rect x="100" y="230" fill="#F4F4F4"/><rect x="110" y="230" fill="#F4F4F4"/><rect x="120" y="230" fill="#1A1C2C"/><rect x="40" y="240" fill="#1A1C2C"/><rect x="50" y="240" fill="#1A1C2C"/><rect x="60" y="240" fill="#1A1C2C"/><rect x="70" y="240" fill="#1A1C2C"/><rect x="80" y="240" fill="#1A1C2C"/><rect x="90" y="240" fill="#1A1C2C"/><rect x="100" y="240" fill="#1A1C2C"/><rect x="110" y="240" fill="#1A1C2C"/><rect x="120" y="240" fill="#1A1C2C"/><rect x="50" y="250" fill="#1A1C2C"/><rect x="60" y="250" fill="#1A1C2C"/><rect x="100" y="250" fill="#1A1C2C"/><rect x="110" y="250" fill="#1A1C2C"/><rect x="370" y="170" fill="#1A1C2C"/><rect x="380" y="170" fill="#1A1C2C"/><rect x="390" y="170" fill="#1A1C2C"/><rect x="400" y="170" fill="#1A1C2C"/><rect x="410" y="170" fill="#1A1C2C"/><rect x="360" y="180" fill="#1A1C2C"/><rect x="370" y="180" fill="#5D275D"/><rect x="380" y="180" fill="#5D275D"/><rect x="390" y="180" fill="#5D275D"/><rect x="400" y="180" fill="#5D275D"/><rect x="410" y="180" fill="#5D275D"/><rect x="420" y="180" fill="#1A1C2C"/><rect x="360" y="190" fill="#1A1C2C"/><rect x="370" y="190" fill="#EF7D57"/><rect x="380" y="190" fill="#EF7D57"/><rect x="390" y="190" fill="#EF7D57"/><rect x="400" y="190" fill="#EF7D57"/><rect x="410" y="190" fill="#1A1C2C"/><rect x="360" y="200" fill="#1A1C2C"/><rect x="370" y="200" fill="#EF7D57"/><rect x="380" y="200" fill="#1A1C2C"/><rect x="390" y="200" fill="#EF7D57"/><rect x="400" y="200" fill="#1A1C2C"/><rect x="410" y="200" fill="#1A1C2C"/><rect x="360" y="210" fill="#1A1C2C"/><rect x="370" y="210" fill="#EF7D57"/><rect x="380" y="210" fill="#EF7D57"/><rect x="390" y="210" fill="#EF7D57"/><rect x="400" y="210" fill="#EF7D57"/><rect x="410" y="210" fill="#1A1C2C"/><rect x="370" y="220" fill="#1A1C2C"/><rect x="380" y="220" fill="#EF7D57"/><rect x="390" y="220" fill="#EF7D57"/><rect x="400" y="220" fill="#1A1C2C"/><rect x="360" y="230" fill="#1A1C2C"/><rect x="370" y="230" fill="#41A6F6"/><rect x="380" y="230" fill="#41A6F6"/><rect x="390" y="230" fill="#41A6F6"/><rect x="400" y="230" fill="#41A6F6"/><rect x="410" y="230" fill="#1A1C2C"/><rect x="350" y="240" fill="#1A1C2C"/><rect x="360" y="240" fill="#41A6F6"/><rect x="370" y="240" fill="#41A6F6"/><rect x="380" y="240" fill="#41A6F6"/><rect x="390" y="240" fill="#41A6F6"/><rect x="400" y="240" fill="#41A6F6"/><rect x="410" y="240" fill="#41A6F6"/><rect x="420" y="240" fill="#1A1C2C"/><rect x="350" y="250" fill="#1A1C2C"/><rect x="360" y="250" fill="#1A1C2C"/><rect x="410" y="250" fill="#1A1C2C"/><rect x="420" y="250" fill="#1A1C2C"/><rect x="40" y="50" fill="#1A1C2C"/><rect x="50" y="50" fill="#1A1C2C"/><rect x="60" y="50" fill="#1A1C2C"/><rect x="70" y="50" fill="#1A1C2C"/><rect x="80" y="50" fill="#1A1C2C"/><rect x="90" y="50" fill="#1A1C2C"/><rect x="100" y="50" fill="#1A1C2C"/><rect x="110" y="50" fill="#1A1C2C"/><rect x="120" y="50" fill="#1A1C2C"/><rect x="130" y="50" fill="#1A1C2C"/><rect x="140" y="50" fill="#1A1C2C"/><rect x="150" y="50" fill="#1A1C2C"/><rect x="160" y="50" fill="#1A1C2C"/><rect x="170" y="50" fill="#1A1C2C"/><rect x="180" y="50" fill="#1A1C2C"/><rect x="40" y="60" fill="#1A1C2C"/><rect x="50" y="60" fill="#F4F4F4"/><rect x="60" y="60" fill="#F4F4F4"/><rect x="70" y="60" fill="#F4F4F4"/><rect x="80" y="60" fill="#F4F4F4"/><rect x="90" y="60" fill="#F4F4F4"/><rect x="100" y="60" fill="#F4F4F4"/><rect x="110" y="60" fill="#F4F4F4"/><rect x="120" y="60" fill="#F4F4F4"/><rect x="130" y="60" fill="#F4F4F4"/><rect x="140" y="60" fill="#F4F4F4"/><rect x="150" y="60" fill="#F4F4F4"/><rect x="160" y="60" fill="#F4F4F4"/><rect x="170" y="60" fill="#F4F4F4"/><rect x="180" y="60" fill="#1A1C2C"/><rect x="40" y="70" fill="#1A1C2C"/><rect x="50" y="70" fill="#F4F4F4"/><rect x="60" y="70" fill="#38B764"/><rect x="70" y="70" fill="#38B764"/><rect x="80" y="70" fill="#F4F4F4"/><rect x="90" y="70" fill="#38B764"/><rect x="100" y="70" fill="#38B764"/><rect x="110" y="70" fill="#38B764"/><rect x="120" y="70" fill="#F4F4F4"/><rect x="130" y="70" fill="#38B764"/><rect x="140" y="70" fill="#38B764"/><rect x="150" y="70" fill="#F4F4F4"/><rect x="160" y="70" fill="#F4F4F4"/><rect x="170" y="70" fill="#F4F4F4"/><rect x="180" y="70" fill="#1A1C2C"/><rect x="40" y="80" fill="#1A1C2C"/><rect x="50" y="80" fill="#F4F4F4"/><rect x="60" y="80" fill="#F4F4F4"/><rect x="70" y="80" fill="#F4F4F4"/><rect x="80" y="80" fill="#F4F4F4"/><rect x="90" y="80" fill="#F4F4F4"/><rect x="100" y="80" fill="#F4F4F4"/><rect x="110" y="80" fill="#F4F4F4"/><rect x="120" y="80" fill="#F4F4F4"/><rect x="130" y="80" fill="#F4F4F4"/><rect x="140" y="80" fill="#F4F4F4"/><rect x="150" y="80" fill="#F4F4F4"/><rect x="160" y="80" fill="#F4F4F4"/><rect x="170" y="80" fill="#F4F4F4"/><rect x="180" y="80" fill="#1A1C2C"/><rect x="40" y="90" fill="#1A1C2C"/><rect x="50" y="90" fill="#1A1C2C"/><rect x="60" y="90" fill="#1A1C2C"/><rect x="70" y="90" fill="#1A1C2C"/><rect x="80" y="90" fill="#1A1C2C"/><rect x="90" y="90" fill="#1A1C2C"/><rect x="100" y="90" fill="#1A1C2C"/><rect x="110" y="90" fill="#1A1C2C"/><rect x="120" y="90" fill="#1A1C2C"/><rect x="130" y="90" fill="#1A1C2C"/><rect x="140" y="90" fill="#1A1C2C"/><rect x="150" y="90" fill="#1A1C2C"/><rect x="160" y="90" fill="#1A1C2C"/><rect x="170" y="90" fill="#1A1C2C"/><rect x="180" y="90" fill="#1A1C2C"/><rect x="60" y="100" fill="#1A1C2C"/><rect x="70" y="100" fill="#1A1C2C"/><rect x="60" y="110" fill="#1A1C2C"/><rect x="250" y="110" fill="#1A1C2C"/><rect x="260" y="110" fill="#1A1C2C"/><rect x="270" y="110" fill="#1A1C2C"/><rect x="280" y="110" fill="#1A1C2C"/><rect x="290" y="110" fill="#1A1C2C"/><rect x="300" y="110" fill="#1A1C2C"/><rect x="310" y="110" fill="#1A1C2C"/><rect x="320" y="110" fill="#1A1C2C"/><rect x="330" y="110" fill="#1A1C2C"/><rect x="340" y="110" fill="#1A1C2C"/><rect x="350" y="110" fill="#1A1C2C"/><rect x="360" y="110" fill="#1A1C2C"/><rect x="370" y="110" fill="#1A1C2C"/><rect x="380" y="110" fill="#1A1C2C"/><rect x="390" y="110" fill="#1A1C2C"/><rect x="400" y="110" fill="#1A1C2C"/><rect x="410" y="110" fill="#1A1C2C"/><rect x="250" y="120" fill="#1A1C2C"/><rect x="260" y="120" fill="#3B5DC9"/><rect x="270" y="120" fill="#3B5DC9"/><rect x="280" y="120" fill="#3B5DC9"/><rect x="290" y="120" fill="#3B5DC9"/><rect x="300" y="120" fill="#3B5DC9"/><rect x="310" y="120" fill="#3B5DC9"/><rect x="320" y="120" fill="#3B5DC9"/><rect x="330" y="120" fill="#3B5DC9"/><rect x="340" y="120" fill="#3B5DC9"/><rect x="350" y="120" fill="#3B5DC9"/><rect x="360" y="120" fill="#3B5DC9"/><rect x="370" y="120" fill="#3B5DC9"/><rect x="380" y="120" fill="#3B5DC9"/><rect x="390" y="120" fill="#3B5DC9"/><rect x="400" y="120" fill="#3B5DC9"/><rect x="410" y="120" fill="#1A1C2C"/><rect x="250" y="130" fill="#1A1C2C"/><rect x="260" y="130" fill="#3B5DC9"/><rect x="270" y="130" fill="#F4F4F4"/><rect x="280" y="130" fill="#F4F4F4"/><rect x="290" y="130" fill="#F4F4F4"/><rect x="300" y="130" fill="#3B5DC9"/><rect x="310" y="130" fill="#F4F4F4"/><rect x="320" y="130" fill="#F4F4F4"/><rect x="330" y="130" fill="#3B5DC9"/><rect x="340" y="130" fill="#F4F4F4"/><rect x="350" y="130" fill="#F4F4F4"/><rect x="360" y="130" fill="#F4F4F4"/><rect x="370" y="130" fill="#F4F4F4"/><rect x="380" y="130" fill="#3B5DC9"/><rect x="390" y="130" fill="#3B5DC9"/><rect x="400" y="130" fill="#3B5DC9"/><rect x="410" y="130" fill="#1A1C2C"/><rect x="250" y="140" fill="#1A1C2C"/><rect x="260" y="140" fill="#3B5DC9"/><rect x="270" y="140" fill="#3B5DC9"/><rect x="280" y="140" fill="#3B5DC9"/><rect x="290" y="140" fill="#3B5DC9"/><rect x="300" y="140" fill="#3B5DC9"/><rect x="310" y="140" fill="#3B5DC9"/><rect x="320" y="140" fill="#3B5DC9"/><rect x="330" y="140" fill="#3B5DC9"/><rect x="340" y="140" fill="#3B5DC9"/><rect x="350" y="140" fill="#3B5DC9"/><rect x="360" y="140" fill="#3B5DC9"/><rect x="370" y="140" fill="#3B5DC9"/><rect x="380" y="140" fill="#3B5DC9"/><rect x="390" y="140" fill="#3B5DC9"/><rect x="400" y="140" fill="#3B5DC9"/><rect x="410" y="140" fill="#1A1C2C"/><rect x="250" y="150" fill="#1A1C2C"/><rect x="260" y="150" fill="#1A1C2C"/><rect x="270" y="150" fill="#1A1C2C"/><rect x="280" y="150" fill="#1A1C2C"/><rect x="290" y="150" fill="#1A1C2C"/><rect x="300" y="150" fill="#1A1C2C"/><rect x="310" y="150" fill="#1A1C2C"/><rect x="320" y="150" fill="#1A1C2C"/><rect x="330" y="150" fill="#1A1C2C"/><rect x="340" y="150" fill="#1A1C2C"/><rect x="350" y="150" fill="#1A1C2C"/><rect x="360" y="150" fill="#1A1C2C"/><rect x="370" y="150" fill="#1A1C2C"/><rect x="380" y="150" fill="#1A1C2C"/><rect x="390" y="150" fill="#1A1C2C"/><rect x="400" y="150" fill="#1A1C2C"/><rect x="410" y="150" fill="#1A1C2C"/><rect x="370" y="160" fill="#1A1C2C"/><rect x="380" y="160" fill="#1A1C2C"/><g font-family="Courier New, monospace" font-weight="700" font-size="12" fill="#FFCD75"><text x="40" y="160">AGENT</text><text x="350" y="160">YOU</text></g><g font-family="Courier New, monospace" font-weight="700" font-size="12" fill="#F4F4F4"><text x="160" y="38">GET /agents</text><text x="250" y="244" fill="#FFCD75">POST /messages</text></g></svg>