<svg xmlns="http://www.w3.org/2000/svg" viewBox="0 0 480 320" width="480" height="320"><defs><linearGradient id="wall" x1="0" y1="0" x2="1" y2="1"><stop offset="0" stop-color="#FDE2C8"/><stop offset=".5" stop-color="#F7B6C8"/><stop offset="1" stop-color="#B7B3F5"/></linearGradient><linearGradient id="gl" x1="0" y1="0" x2="0" y2="1"><stop offset="0" stop-color="#fff" stop-opacity=".55"/><stop offset=".5" stop-color="#fff" stop-opacity="0"/></linearGradient><filter id="s"><feDropShadow dx="0" dy="4" stdDeviation="4" flood-opacity=".22"/></filter><linearGradient id="a" x1="0" y1="0" x2="0" y2="1"><stop offset="0" stop-color="#6EE7B7"/><stop offset="1" stop-color="#059669"/></linearGradient><linearGradient id="b" x1="0" y1="0" x2="0" y2="1"><stop offset="0" stop-color="#93C5FD"/><stop offset="1" stop-color="#2563EB"/></linearGradient><linearGradient id="c" x1="0" y1="0" x2="0" y2="1"><stop offset="0" stop-color="#FDBA74"/><stop offset="1" stop-color="#EA580C"/></linearGradient><linearGradient id="d" x1="0" y1="0" x2="0" y2="1"><stop offset="0" stop-color="#F9A8D4"/><stop offset="1" stop-color="#DB2777"/></linearGradient><linearGradient id="e" x1="0" y1="0" x2="0" y2="1"><stop offset="0" stop-color="#FDE68A"/><stop offset="1" stop-color="#D97706"/></linearGradient><linearGradient id="f" x1="0" y1="0" x2="0" y2="1"><stop offset="0" stop-color="#C4B5FD"/><stop offset="1" stop-color="#7C3AED"/></linearGradient><linearGradient id="g" x1="0" y1="0" x2="0" y2="1"><stop offset="0" stop-color="#555"/><stop offset="1" stop-color="#111"/></linearGradient><linearGradient id="h" x1="0" y1="0" x2="0" y2="1"><stop offset="0" stop-color="#A5F3FC"/><stop offset="1" stop-color="#0891B2"/></linearGradient></defs><rect width="480" height="320" fill="url(#wall)"/><g filter="url(#s)"><g transform="translate(70 36)"><rect width="64" height="64" rx="15" fill="url(#a)"/><path d="M18 40l10-16 8 10 6-8 8 14z" fill="#fff"/></g><g transform="translate(166 36)"><rect width="64" height="64" rx="15" fill="url(#b)"/><rect x="16" y="18" width="32" height="28" rx="4" fill="#fff"/><path d="M16 26h32" stroke="#2563EB" stroke-width="3"/></g><g transform="translate(262 36)"><rect width="64" height="64" rx="15" fill="url(#c)"/><circle cx="32" cy="32" r="14" fill="none" stroke="#fff" stroke-width="5"/><path d="M32 22v10l7 5" stroke="#fff" stroke-width="4" fill="none" stroke-linecap="round"/></g><g transform="translate(358 36)"><rect width="64" height="64" rx="15" fill="url(#d)"/><path d="M32 46s-14-8-14-18a7 7 0 0114-3 7 7 0 0114 3c0 10-14 18-14 18z" fill="#fff"/></g><g transform="translate(70 142)"><rect width="64" height="64" rx="15" fill="url(#e)"/><path d="M20 44V22l12 10 12-10v22" stroke="#fff" stroke-width="5" fill="none" stroke-linejoin="round"/></g><g transform="translate(166 142)"><rect width="64" height="64" rx="15" fill="url(#f)"/><path d="M18 22h28M18 32h20M18 42h24" stroke="#fff" stroke-width="5" stroke-linecap="round"/></g><g transform="translate(262 142)"><rect width="64" height="64" rx="15" fill="url(#g)"/><text x="32" y="40" text-anchor="middle" font-family="Menlo, monospace" font-size="18" fill="#7CFC9A">&gt;_</text></g><g transform="translate(358 142)"><rect width="64" height="64" rx="15" fill="url(#h)"/><circle cx="24" cy="28" r="6" fill="#fff"/><circle cx="40" cy="40" r="6" fill="#fff"/><path d="M24 28L40 40" stroke="#fff" stroke-width="3"/></g></g><g fill="url(#gl)"><rect x="70" y="36" width="64" height="32" rx="15"/><rect x="166" y="36" width="64" height="32" rx="15"/><rect x="262" y="36" width="64" height="32" rx="15"/><rect x="358" y="36" width="64" height="32" rx="15"/><rect x="70" y="142" width="64" height="32" rx="15"/><rect x="166" y="142" width="64" height="32" rx="15"/><rect x="262" y="142" width="64" height="32" rx="15"/><rect x="358" y="142" width="64" height="32" rx="15"/></g><g font-family="-apple-system, Helvetica Neue, Arial" font-size="11" fill="#3B2A4A" text-anchor="middle"><text x="102" y="118">Trips</text><text x="198" y="118">Planner</text><text x="294" y="118">Pulse</text><text x="390" y="118">Kudos</text><text x="102" y="224">Megabox</text><text x="198" y="224">Notes</text><text x="294" y="224">Agent</text><text x="390" y="224">Graph</text></g><circle cx="420" cy="38" r="10" fill="#FF3B30"/><text x="420" y="42" text-anchor="middle" font-family="Helvetica, Arial" font-size="11" font-weight="700" fill="#fff">3</text><rect x="110" y="250" width="260" height="46" rx="18" fill="#fff" opacity=".45"/><g font-family="-apple-system, Helvetica Neue, Arial" font-size="11" fill="#3B2A4A" text-anchor="middle"><text x="175" y="278">Shared by me · 6</text><text x="305" y="278">Shared with me · 4</text></g></svg>