<svg xmlns="http://www.w3.org/2000/svg" viewBox="0 0 480 320" width="480" height="320"><defs><radialGradient id="sky" cx=".5" cy=".5" r=".75"><stop offset="0" stop-color="#1B2550"/><stop offset="1" stop-color="#0A0F26"/></radialGradient><filter id="gl"><feGaussianBlur stdDeviation="2" result="b"/><feMerge><feMergeNode in="b"/><feMergeNode in="SourceGraphic"/></feMerge></filter></defs><rect width="480" height="320" fill="url(#sky)"/><g fill="none" stroke="#C9A84A" stroke-opacity=".35"><circle cx="240" cy="160" r="150"/><circle cx="240" cy="160" r="100" stroke-dasharray="2 4"/><path d="M240 0v320M60 160h360" stroke-dasharray="2 6"/></g><g fill="#fff" opacity=".6"><circle cx="30" cy="40" r=".9"/><circle cx="90" cy="280" r="1.1"/><circle cx="440" cy="60" r="1"/><circle cx="400" cy="290" r=".8"/><circle cx="150" cy="30" r=".7"/><circle cx="320" cy="20" r="1"/><circle cx="460" cy="200" r=".9"/><circle cx="20" cy="190" r="1"/><circle cx="210" cy="300" r=".8"/><circle cx="360" cy="120" r=".7"/><circle cx="120" cy="120" r=".7"/></g><g stroke="#E9D8A6" stroke-width="1.2" opacity=".85" fill="none"><path d="M120 90L200 130L250 80L330 110L390 70M200 130L230 200L310 220L380 190M230 200L150 230L100 190M330 110L310 220"/></g><g filter="url(#gl)" fill="#FFF3C4"><circle cx="120" cy="90" r="4"/><circle cx="200" cy="130" r="7"/><circle cx="250" cy="80" r="5"/><circle cx="330" cy="110" r="9"/><circle cx="390" cy="70" r="3.5"/><circle cx="230" cy="200" r="6"/><circle cx="310" cy="220" r="5"/><circle cx="380" cy="190" r="3.5"/><circle cx="150" cy="230" r="4"/><circle cx="100" cy="190" r="3"/></g><g font-family="Didot, Georgia, serif" font-style="italic" font-size="12" fill="#E9D8A6"><text x="342" y="102">AI safety</text><text x="176" y="118">startups</text><text x="240" y="66">typography</text><text x="238" y="218">climbing</text><text x="96" y="252">coffee</text><text x="318" y="240">cities</text></g><text x="24" y="296" font-family="Didot, Georgia, serif" font-size="10" letter-spacing="4" fill="#C9A84A">CONSTELLATIO · @ANY_USER</text></svg>