<svg xmlns="http://www.w3.org/2000/svg" viewBox="0 0 480 320" width="480" height="320"><rect width="240" height="320" fill="#E9E4DA"/><rect x="240" width="240" height="320" fill="#1F6F5C"/><g stroke="#8A8171" stroke-width="1.2" fill="#fff"><g transform="rotate(-18 90 120)"><rect x="50" y="94" width="80" height="52" rx="3"/><path d="M50 94l40 30 40-30" fill="none"/></g><g transform="rotate(12 150 90)"><rect x="110" y="64" width="80" height="52" rx="3"/><path d="M110 64l40 30 40-30" fill="none"/></g><g transform="rotate(26 80 200)"><rect x="40" y="174" width="80" height="52" rx="3"/><path d="M40 174l40 30 40-30" fill="none"/></g><g transform="rotate(-8 160 200)"><rect x="120" y="170" width="80" height="52" rx="3"/><path d="M120 170l40 30 40-30" fill="none"/></g><g transform="rotate(5 110 150)"><rect x="70" y="124" width="80" height="52" rx="3"/><path d="M70 124l40 30 40-30" fill="none"/></g><g transform="rotate(-32 170 250)"><rect x="140" y="226" width="70" height="46" rx="3"/><path d="M140 226l35 26 35-26" fill="none"/></g><g transform="rotate(40 60 60)"><rect x="30" y="40" width="64" height="42" rx="3"/><path d="M30 40l32 24 32-24" fill="none"/></g></g><circle cx="200" cy="56" r="17" fill="#D64545"/><text x="200" y="62" font-family="Helvetica, Arial" font-weight="800" font-size="15" fill="#fff" text-anchor="middle">214</text><g font-family="Helvetica Neue, Arial" font-weight="800" letter-spacing="3" font-size="11"><text x="20" y="298" fill="#8A8171">BEFORE</text><text x="460" y="298" fill="#9FE3C8" text-anchor="end">AFTER</text></g><g font-family="Helvetica Neue, Arial" font-size="12" fill="#fff"><g transform="translate(264 40)"><rect width="192" height="40" rx="6" fill="#fff" fill-opacity=".1"/><rect width="5" height="40" rx="2" fill="#FFC857"/><text x="16" y="25" font-weight="700">Reply needed</text><text x="180" y="25" text-anchor="end" font-weight="700">4</text></g><g transform="translate(264 90)"><rect width="192" height="40" rx="6" fill="#fff" fill-opacity=".1"/><rect width="5" height="40" rx="2" fill="#9FE3C8"/><text x="16" y="25" font-weight="700">FYI</text><text x="180" y="25" text-anchor="end" font-weight="700">11</text></g><g transform="translate(264 140)"><rect width="192" height="40" rx="6" fill="#fff" fill-opacity=".1"/><rect width="5" height="40" rx="2" fill="#8EC5FF"/><text x="16" y="25" font-weight="700">Receipts</text><text x="180" y="25" text-anchor="end" font-weight="700">9</text></g><g transform="translate(264 190)"><rect width="192" height="40" rx="6" fill="#fff" fill-opacity=".1"/><rect width="5" height="40" rx="2" fill="#FF8A80"/><text x="16" y="25" font-weight="700">Unsubscribe</text><text x="180" y="25" text-anchor="end" font-weight="700">190</text></g></g><path d="M240 0v320" stroke="#fff" stroke-width="3"/><circle cx="240" cy="160" r="18" fill="#fff"/><path d="M233 160h14M242 154l6 6-6 6" stroke="#1F6F5C" stroke-width="2.5" fill="none" stroke-linecap="round" stroke-linejoin="round"/></svg>