<svg xmlns="http://www.w3.org/2000/svg" viewBox="0 0 480 320" width="480" height="320"><defs><filter id="age"><feTurbulence type="fractalNoise" baseFrequency=".9" seed="12"/><feColorMatrix values="0 0 0 0 .4 0 0 0 0 .3 0 0 0 0 .15 0 0 0 .18 0"/></filter><radialGradient id="ap" cx=".35" cy=".35" r=".7"><stop offset="0" stop-color="#F2765A"/><stop offset="1" stop-color="#A3212A"/></radialGradient></defs><rect width="480" height="320" fill="#5E7A4A"/><g transform="rotate(-3 240 160)"><rect x="110" y="16" width="260" height="290" fill="#F3E3BE"/><rect x="120" y="26" width="240" height="270" fill="none" stroke="#7A2E1F" stroke-width="2"/><rect x="125" y="31" width="230" height="260" fill="none" stroke="#7A2E1F" stroke-width=".8"/><text x="240" y="66" text-anchor="middle" font-family="Rockwell, Clarendon, Georgia, serif" font-weight="700" font-size="30" fill="#7A2E1F" letter-spacing="3">ORCHARD</text><text x="240" y="84" text-anchor="middle" font-family="Georgia, serif" font-style="italic" font-size="11" fill="#3F4F2E">Choice Candidates · Est. 2026</text><ellipse cx="240" cy="180" rx="92" ry="80" fill="#DCCB9A"/><path d="M232 256 C 234 220, 236 200, 230 176 M240 256 C 242 222, 246 204, 256 180" stroke="#6B4A2B" stroke-width="8" stroke-linecap="round" fill="none"/><g fill="#5E8B3E"><circle cx="200" cy="150" r="34"/><circle cx="240" cy="126" r="38"/><circle cx="282" cy="150" r="34"/><circle cx="222" cy="176" r="30"/><circle cx="262" cy="178" r="30"/></g><g fill="#3F6B2A" opacity=".6"><circle cx="210" cy="160" r="16"/><circle cx="270" cy="162" r="14"/><circle cx="244" cy="140" r="16"/></g><g fill="url(#ap)"><circle cx="196" cy="140" r="9"/><circle cx="236" cy="112" r="9"/><circle cx="280" cy="140" r="9"/><circle cx="226" cy="174" r="9"/><circle cx="264" cy="168" r="9"/><circle cx="252" cy="134" r="8"/></g><g fill="#F8C8B0" opacity=".8"><circle cx="193" cy="137" r="2.4"/><circle cx="233" cy="109" r="2.4"/><circle cx="277" cy="137" r="2.4"/><circle cx="223" cy="171" r="2.4"/><circle cx="261" cy="165" r="2.4"/></g><rect x="150" y="262" width="180" height="22" fill="#7A2E1F"/><text x="240" y="277" text-anchor="middle" font-family="Georgia, serif" font-size="9" fill="#F3E3BE" letter-spacing="1">SOW · FOLLOW UP · HARVEST</text></g><rect width="480" height="320" filter="url(#age)"/><g transform="translate(386 214) rotate(8)" font-family="Georgia, serif"><rect width="78" height="56" fill="#F3E3BE" stroke="#7A2E1F"/><text x="8" y="18" font-size="9" fill="#7A2E1F">OPENED</text><text x="8" y="40" font-size="20" font-weight="700" fill="#7A2E1F">68%</text></g></svg>