<svg xmlns="http://www.w3.org/2000/svg" viewBox="0 0 480 320" width="480" height="320"><style>text{white-space:pre}</style><rect width="480" height="320" fill="#FFF7B8"/><g stroke="#8FB8DE" stroke-width="1"><path d="M0 64h480M0 92h480M0 120h480M0 148h480M0 176h480M0 204h480M0 232h480M0 260h480M0 288h480"/></g><path d="M58 0v320M62 0v320" stroke="#E88A8A" stroke-width="1.2"/><rect width="480" height="30" fill="#8C2F39"/><g fill="#6E1F29"><rect x="0" y="26" width="480" height="4"/></g><g font-family="American Typewriter, Courier New, Courier, monospace" font-size="15" fill="#1D1D1D"><text x="74" y="58"># INBOX (3)</text><text x="74" y="86">- [ ] call plumber re: leak</text><text x="74" y="114">- [ ] idea: garden shed?</text><text x="74" y="142"># NEXT @computer</text><text x="74" y="170">- [x] <tspan text-decoration="line-through" fill="#777">renew passport</tspan></text><text x="74" y="198">- [ ] draft talk outline</text><text x="74" y="226"># WAITING</text><text x="74" y="254">- [ ] K. — signed lease</text><text x="74" y="282"># WEEKLY REVIEW  fri</text></g><text x="440" y="86" font-family="American Typewriter, Courier New, monospace" font-size="11" fill="#8C2F39" text-anchor="end">todo.md</text></svg>