<svg xmlns="http://www.w3.org/2000/svg" width="640" height="1052" viewBox="0 0 640 1052" font-family="ui-sans-serif, system-ui, -apple-system, Segoe UI, Helvetica, Arial, sans-serif">
<defs><marker id="arrow" viewBox="0 0 10 10" refX="9" refY="5" markerWidth="7" markerHeight="7" orient="auto-start-reverse"><path d="M 0 0 L 10 5 L 0 10 z" fill="#7a8088"/></marker></defs>
<rect width="640" height="1052" fill="#ffffff"/>
<g><rect x="28" y="28" width="584" height="34" rx="17" fill="#f5f5f5" stroke="#9aa0a6"/><text x="320" y="49" text-anchor="middle" font-size="11.5" fill="#57606a">inputs: base_commit, corpus</text></g>
<g><path d="M 320 62 C 320 90, 320 90, 320 118" fill="none" stroke="#7a8088" stroke-width="1.4" marker-end="url(#arrow)"/><text x="326" y="90" font-size="10.5" fill="#57606a">base_commit</text></g>
<g><path d="M 320 62 C 320 90, 320 90, 320 118" fill="none" stroke="#7a8088" stroke-width="1.4" marker-end="url(#arrow)"/><text x="326" y="90" font-size="10.5" fill="#57606a">corpus</text></g>
<g><path d="M 320 214 C 320 256, 320 256, 320 298" fill="none" stroke="#7a8088" stroke-width="1.4" marker-end="url(#arrow)"/><text x="326" y="256" font-size="10.5" fill="#57606a">scaffolding_branch</text></g>
<g><path d="M 320 214 C 320 256, 320 256, 320 298" fill="none" stroke="#7a8088" stroke-width="1.4" marker-end="url(#arrow)"/><text x="326" y="256" font-size="10.5" fill="#57606a">scaffolding_guide</text></g>
<g><path d="M 320 214 C 320 256, 320 256, 320 298" fill="none" stroke="#7a8088" stroke-width="1.4" marker-end="url(#arrow)"/><text x="326" y="256" font-size="10.5" fill="#57606a">base_witness_links</text></g>
<g><path d="M 320 62 C 320 180, 320 180, 320 298" fill="none" stroke="#7a8088" stroke-width="1.4" marker-end="url(#arrow)"/><text x="326" y="180" font-size="10.5" fill="#57606a">corpus</text></g>
<g><path d="M 320 394 C 320 436, 320 436, 320 478" fill="none" stroke="#7a8088" stroke-width="1.4" marker-end="url(#arrow)"/><text x="326" y="436" font-size="10.5" fill="#57606a">mapper_branch</text></g>
<g><path d="M 320 394 C 320 436, 320 436, 320 478" fill="none" stroke="#7a8088" stroke-width="1.4" marker-end="url(#arrow)"/><text x="326" y="436" font-size="10.5" fill="#57606a">mapper_outcome</text></g>
<g><path d="M 320 394 C 320 436, 320 436, 320 478" fill="none" stroke="#7a8088" stroke-width="1.4" marker-end="url(#arrow)"/><text x="326" y="436" font-size="10.5" fill="#57606a">mapper_junit</text></g>
<g><path d="M 320 394 C 320 436, 320 436, 320 478" fill="none" stroke="#7a8088" stroke-width="1.4" marker-end="url(#arrow)"/><text x="326" y="436" font-size="10.5" fill="#57606a">mapper_witness_links</text></g>
<g><path d="M 320 574 C 320 616, 320 616, 320 658" fill="none" stroke="#7a8088" stroke-width="1.4" marker-end="url(#arrow)"/><text x="326" y="616" font-size="10.5" fill="#57606a">reviewed_branch</text></g>
<g><path d="M 320 574 C 320 616, 320 616, 320 658" fill="none" stroke="#7a8088" stroke-width="1.4" marker-end="url(#arrow)"/><text x="326" y="616" font-size="10.5" fill="#57606a">review_outcome</text></g>
<g><path d="M 320 214 C 320 436, 320 436, 320 658" fill="none" stroke="#7a8088" stroke-width="1.4" marker-end="url(#arrow)"/><text x="326" y="436" font-size="10.5" fill="#57606a">scaffolding_branch</text></g>
<g><path d="M 320 754 C 320 796, 320 796, 320 838" fill="none" stroke="#7a8088" stroke-width="1.4" marker-end="url(#arrow)"/><text x="326" y="796" font-size="10.5" fill="#57606a">integration_branch</text></g>
<g><path d="M 320 754 C 320 796, 320 796, 320 838" fill="none" stroke="#7a8088" stroke-width="1.4" marker-end="url(#arrow)"/><text x="326" y="796" font-size="10.5" fill="#57606a">cherry_pick_conflicts</text></g>
<g><path d="M 320 214 C 320 526, 320 526, 320 838" fill="none" stroke="#7a8088" stroke-width="1.4" marker-end="url(#arrow)"/><text x="326" y="526" font-size="10.5" fill="#57606a">scaffolding_guide</text></g>
<g><path d="M 320 934 C 320 962, 320 962, 320 990" fill="none" stroke="#7a8088" stroke-width="1.4" marker-end="url(#arrow)"/><text x="326" y="962" font-size="10.5" fill="#57606a">integrated_branch</text></g>
<g><rect x="200" y="118" width="240" height="96" rx="7" fill="#eef4ff" stroke="#3b6fd4"/><text x="212" y="142" font-size="14" font-weight="600" fill="#1f2328">setup</text><text x="212" y="162" font-size="11.5" fill="#1f2328">SINGLE</text><text x="212" y="178" font-size="11.5" fill="#57606a">one agent</text><text x="212" y="194" font-size="11.5" fill="#57606a">needs 100% to succeed</text><text x="212" y="210" font-size="11.5" fill="#57606a">gates: corpus_untouched, lint,...</text></g>
<g><rect x="200" y="298" width="240" height="96" rx="7" fill="#eef4ff" stroke="#3b6fd4"/><text x="212" y="322" font-size="14" font-weight="600" fill="#1f2328">map</text><text x="212" y="342" font-size="11.5" fill="#1f2328">DISCOVERED</text><text x="212" y="358" font-size="11.5" fill="#57606a">one agent per feature file</text><text x="212" y="374" font-size="11.5" fill="#57606a">needs 50% to succeed, min 1</text><text x="212" y="390" font-size="11.5" fill="#57606a">gates: corpus_untouched, lint,...</text></g>
<g><rect x="200" y="478" width="240" height="96" rx="7" fill="#eef4ff" stroke="#3b6fd4"/><text x="212" y="502" font-size="14" font-weight="600" fill="#1f2328">review</text><text x="212" y="522" font-size="11.5" fill="#1f2328">PER_UPSTREAM_JOB</text><text x="212" y="538" font-size="11.5" fill="#57606a">one agent per successful mapper</text><text x="212" y="554" font-size="11.5" fill="#57606a">needs 50% to succeed</text><text x="212" y="570" font-size="11.5" fill="#57606a">gates: corpus_untouched, lint,...</text></g>
<g><rect x="200" y="658" width="240" height="96" rx="7" fill="#f3eeff" stroke="#6b46c1"/><text x="212" y="682" font-size="14" font-weight="600" fill="#1f2328">integrate</text><text x="212" y="702" font-size="11.5" fill="#1f2328">ORCHESTRATOR</text><text x="212" y="718" font-size="11.5" fill="#57606a">runs on the executor</text></g>
<g><rect x="200" y="838" width="240" height="96" rx="7" fill="#eef4ff" stroke="#3b6fd4"/><text x="212" y="862" font-size="14" font-weight="600" fill="#1f2328">reduce</text><text x="212" y="882" font-size="11.5" fill="#1f2328">SINGLE</text><text x="212" y="898" font-size="11.5" fill="#57606a">one agent</text><text x="212" y="914" font-size="11.5" fill="#57606a">needs 100% to succeed</text><text x="212" y="930" font-size="11.5" fill="#57606a">gates: corpus_untouched, lint,...</text></g>
<g><rect x="28" y="990" width="584" height="34" rx="17" fill="#f5f5f5" stroke="#9aa0a6"/><text x="320" y="1011" text-anchor="middle" font-size="11.5" fill="#57606a">outputs: integrated_branch, report</text></g>
</svg>
