<svg xmlns="http://www.w3.org/2000/svg" width="216" height="216" viewBox="0 0 216 216" fill="none"><defs><clipPath id="chat-icon-c112"><rect width="216" height="216" rx="69.12"/></clipPath><radialGradient id="chat-icon-g111" cx="134" cy="134" r="162" gradientUnits="userSpaceOnUse"><stop offset="0" stop-color="#F6A965"/><stop offset="1" stop-color="#5E4775"/></radialGradient></defs><g clip-path="url(#chat-icon-c112)"><rect width="216" height="216" fill="url(#chat-icon-g111)"/><path d="M92 40h66c12 0 22 10 22 22v34c0 12-10 22-22 22h-4v18l-20-18H92c-12 0-22-10-22-22V62c0-12 10-22 22-22z" fill="#FFF3E6" opacity=".55"/><path d="M58 84h66c12 0 22 10 22 22v34c0 12-10 22-22 22H86l-24 20v-20h-4c-12 0-22-10-22-22v-34c0-12 10-22 22-22z" fill="#FFF3E6"/></g></svg>
